<?xml version="1.0" encoding="UTF-8" standalone="no"?><!DOCTYPE svg PUBLIC "-//W3C//DTD SVG 1.1//EN" "http://www.w3.org/Graphics/SVG/1.1/DTD/svg11.dtd"><svg width="100%" height="100%" viewBox="0 0 20 20" version="1.1" xmlns="http://www.w3.org/2000/svg" xmlns:xlink="http://www.w3.org/1999/xlink" xml:space="preserve" xmlns:serif="http://www.serif.com/" style="fill-rule:evenodd;clip-rule:evenodd;stroke-linejoin:round;stroke-miterlimit:1.41421;"><path d="M18.175,9.983l-7.5,-7.5c-0.3,-0.3 -0.717,-0.483 -1.175,-0.483l-5.833,0c-0.917,0 -1.667,0.75 -1.667,1.667l0,5.833c0,0.458 0.183,0.875 0.492,1.183l7.5,7.5c0.3,0.3 0.716,0.484 1.175,0.484c0.458,0 0.875,-0.184 1.175,-0.492l5.833,-5.833c0.308,-0.3 0.492,-0.717 0.492,-1.175c0,-0.459 -0.192,-0.884 -0.492,-1.184Zm-7.008,7.025l-7.5,-7.508l0,-5.833l5.833,0l0,-0.009l7.5,7.5l-5.833,5.85Z" style="fill:#30b7bd;fill-rule:nonzero;"/><path d="M5.75,7c0.69,0 1.25,-0.56 1.25,-1.25c0,-0.69 -0.56,-1.25 -1.25,-1.25c-0.69,0 -1.25,0.56 -1.25,1.25c0,0.69 0.56,1.25 1.25,1.25Z" style="fill:#30b7bd;fill-rule:nonzero;"/></svg>