<?xml version="1.0" encoding="UTF-8" standalone="no"?><!DOCTYPE svg PUBLIC "-//W3C//DTD SVG 1.1//EN" "http://www.w3.org/Graphics/SVG/1.1/DTD/svg11.dtd"><svg width="100%" height="100%" viewBox="0 0 20 20" version="1.1" xmlns="http://www.w3.org/2000/svg" xmlns:xlink="http://www.w3.org/1999/xlink" xml:space="preserve" xmlns:serif="http://www.serif.com/" style="fill-rule:evenodd;clip-rule:evenodd;stroke-linejoin:round;stroke-miterlimit:1.41421;"><path d="M17.258,16.075l-2.833,-2.825c0.914,-1.165 1.41,-2.603 1.408,-4.083c0,-1.319 -0.391,-2.608 -1.123,-3.704c-0.733,-1.096 -1.774,-1.951 -2.992,-2.456c-1.218,-0.504 -2.559,-0.636 -3.852,-0.379c-1.293,0.257 -2.481,0.892 -3.413,1.825c-0.933,0.932 -1.568,2.12 -1.825,3.413c-0.257,1.293 -0.125,2.634 0.379,3.852c0.505,1.218 1.36,2.259 2.456,2.992c1.096,0.732 2.385,1.123 3.704,1.123c1.48,0.002 2.918,-0.494 4.083,-1.408l2.825,2.833c0.078,0.078 0.17,0.14 0.271,0.183c0.102,0.042 0.211,0.064 0.321,0.064c0.11,0 0.219,-0.022 0.32,-0.064c0.102,-0.043 0.194,-0.105 0.271,-0.183c0.078,-0.077 0.14,-0.169 0.183,-0.271c0.042,-0.101 0.064,-0.21 0.064,-0.32c0,-0.11 -0.022,-0.219 -0.064,-0.321c-0.043,-0.101 -0.105,-0.194 -0.183,-0.271Zm-13.091,-6.908c0,-0.989 0.293,-1.956 0.842,-2.778c0.55,-0.822 1.331,-1.463 2.244,-1.842c0.914,-0.378 1.919,-0.477 2.889,-0.284c0.97,0.193 1.861,0.669 2.56,1.368c0.699,0.699 1.176,1.59 1.369,2.56c0.192,0.97 0.093,1.976 -0.285,2.889c-0.378,0.914 -1.019,1.695 -1.842,2.244c-0.822,0.549 -1.788,0.843 -2.777,0.843c-1.326,0 -2.598,-0.527 -3.536,-1.465c-0.938,-0.937 -1.464,-2.209 -1.464,-3.535Z" style="fill:#999;fill-rule:nonzero;"/></svg>