<?xml version="1.0" encoding="UTF-8" standalone="no"?><!DOCTYPE svg PUBLIC "-//W3C//DTD SVG 1.1//EN" "http://www.w3.org/Graphics/SVG/1.1/DTD/svg11.dtd"><svg width="100%" height="100%" viewBox="0 0 26 26" version="1.1" xmlns="http://www.w3.org/2000/svg" xmlns:xlink="http://www.w3.org/1999/xlink" xml:space="preserve" xmlns:serif="http://www.serif.com/" style="fill-rule:evenodd;clip-rule:evenodd;stroke-linejoin:round;stroke-miterlimit:1.41421;"><path d="M21,8l-16,0c-1.1,0 -2,0.9 -2,2l0,6c0,1.1 0.9,2 2,2l16,0c1.1,0 2,-0.9 2,-2l0,-6c0,-1.1 -0.9,-2 -2,-2Zm0,8l-16,0l0,-6l16,0l0,6Zm-11,-5l-4,0l0,4l4,0l0,-4Zm5,0l-4,0l0,4l4,0l0,-4Zm5,0l-4,0l0,4l4,0l0,-4Z" style="fill:#4f4f4f;fill-rule:nonzero;"/></svg>