<?xml version="1.0" encoding="UTF-8" standalone="no"?><!DOCTYPE svg PUBLIC "-//W3C//DTD SVG 1.1//EN" "http://www.w3.org/Graphics/SVG/1.1/DTD/svg11.dtd"><svg width="100%" height="100%" viewBox="0 0 22 22" version="1.1" xmlns="http://www.w3.org/2000/svg" xmlns:xlink="http://www.w3.org/1999/xlink" xml:space="preserve" xmlns:serif="http://www.serif.com/" style="fill-rule:evenodd;clip-rule:evenodd;stroke-linecap:round;stroke-linejoin:round;"><path d="M16.661,10.637l0,-2.473c0,-3.187 -2.426,-5.771 -5.419,-5.771c-2.993,0 -5.419,2.584 -5.419,5.771l0,2.473c0,2.721 -2.323,3.38 -2.323,4.947c0,1.401 3.019,2.473 7.742,2.473c4.722,0 7.742,-1.072 7.742,-2.473c0,-1.567 -2.323,-2.226 -2.323,-4.947Z" style="fill:none;stroke:#4f4f4f;stroke-width:2.27px;"/><path d="M11.242,19.706c-0.783,0 -1.518,-0.028 -2.21,-0.082c0.303,1.028 1.198,1.728 2.21,1.728c1.012,0 1.908,-0.7 2.21,-1.728c-0.692,0.054 -1.427,0.082 -2.21,0.082Z" style="fill:#4f4f4f;fill-rule:nonzero;"/></svg>