<?xml version="1.0" encoding="UTF-8" standalone="no"?><!DOCTYPE svg PUBLIC "-//W3C//DTD SVG 1.1//EN" "http://www.w3.org/Graphics/SVG/1.1/DTD/svg11.dtd"><svg width="100%" height="100%" viewBox="0 0 20 20" version="1.1" xmlns="http://www.w3.org/2000/svg" xmlns:xlink="http://www.w3.org/1999/xlink" xml:space="preserve" xmlns:serif="http://www.serif.com/" style="fill-rule:evenodd;clip-rule:evenodd;stroke-linejoin:round;stroke-miterlimit:1.41421;"><path d="M15.406,19.689c-0.187,-0.001 -0.373,-0.021 -0.556,-0.061c-3.474,-0.719 -6.675,-2.404 -9.233,-4.861c-2.504,-2.463 -4.241,-5.599 -5,-9.028c-0.09,-0.427 -0.068,-0.871 0.063,-1.287c0.132,-0.417 0.368,-0.792 0.687,-1.091l2.222,-2.139c0.113,-0.107 0.248,-0.189 0.396,-0.241c0.147,-0.052 0.304,-0.072 0.459,-0.059c0.162,0.017 0.318,0.069 0.457,0.153c0.139,0.083 0.258,0.196 0.349,0.331l2.778,4.105c0.104,0.159 0.154,0.348 0.143,0.538c-0.011,0.19 -0.082,0.371 -0.204,0.518l-1.395,1.666c0.556,1.229 1.342,2.34 2.317,3.273c0.968,0.966 2.113,1.737 3.372,2.272l1.728,-1.372c0.145,-0.115 0.322,-0.183 0.506,-0.195c0.185,-0.012 0.369,0.033 0.527,0.128l4.195,2.711c0.144,0.086 0.266,0.203 0.358,0.343c0.093,0.141 0.152,0.3 0.174,0.466c0.021,0.166 0.006,0.335 -0.047,0.494c-0.053,0.159 -0.141,0.305 -0.258,0.425l-2.166,2.144c-0.246,0.245 -0.538,0.439 -0.86,0.571c-0.321,0.131 -0.665,0.198 -1.012,0.196Zm-11.05,-17.667l-2.223,2.139c-0.179,0.167 -0.312,0.378 -0.385,0.612c-0.073,0.233 -0.084,0.482 -0.031,0.721c0.706,3.218 2.328,6.163 4.672,8.478c2.408,2.312 5.42,3.897 8.689,4.572c0.247,0.052 0.504,0.042 0.746,-0.03c0.242,-0.072 0.463,-0.203 0.643,-0.381l2.166,-2.144l-4.05,-2.617l-1.855,1.478c-0.071,0.056 -0.155,0.094 -0.244,0.111c-0.089,0.016 -0.181,0.011 -0.267,-0.017c-1.541,-0.567 -2.937,-1.468 -4.089,-2.638c-1.192,-1.113 -2.117,-2.48 -2.706,-4c-0.025,-0.092 -0.026,-0.189 -0.002,-0.282c0.023,-0.092 0.07,-0.177 0.136,-0.246l1.5,-1.795l-2.7,-3.961Z" style="fill:#4f4f4f;fill-rule:nonzero;"/></svg>