<?xml version="1.0" encoding="UTF-8" standalone="no"?><!DOCTYPE svg PUBLIC "-//W3C//DTD SVG 1.1//EN" "http://www.w3.org/Graphics/SVG/1.1/DTD/svg11.dtd"><svg width="100%" height="100%" viewBox="0 0 20 20" version="1.1" xmlns="http://www.w3.org/2000/svg" xmlns:xlink="http://www.w3.org/1999/xlink" xml:space="preserve" xmlns:serif="http://www.serif.com/" style="fill-rule:evenodd;clip-rule:evenodd;stroke-linejoin:round;stroke-miterlimit:1.41421;"><g><rect x="0" y="0" width="20" height="19.286" style="fill:#fff;"/><path d="M6.891,-0.261l-4.347,0c-0.606,0.002 -1.186,0.244 -1.614,0.672c-0.429,0.429 -0.67,1.009 -0.673,1.615l0,4.347c0.003,0.606 0.244,1.186 0.673,1.614c0.428,0.429 1.008,0.671 1.614,0.673l4.347,0c0.606,-0.002 1.186,-0.244 1.615,-0.673c0.428,-0.428 0.67,-1.008 0.672,-1.614l0,-4.347c-0.002,-0.606 -0.244,-1.186 -0.672,-1.615c-0.429,-0.428 -1.009,-0.67 -1.615,-0.672Zm0.665,6.634c0,0.176 -0.07,0.345 -0.195,0.47c-0.125,0.125 -0.294,0.195 -0.47,0.195l-4.347,0c-0.176,0 -0.345,-0.07 -0.47,-0.195c-0.125,-0.125 -0.195,-0.294 -0.195,-0.47l0,-4.347c0,-0.176 0.07,-0.345 0.195,-0.47c0.125,-0.125 0.294,-0.195 0.47,-0.195l4.347,0c0.176,0 0.345,0.07 0.47,0.195c0.125,0.125 0.195,0.294 0.195,0.47l0,4.347Z" style="fill:#999;fill-rule:nonzero;"/><path d="M17.433,-0.261l-4.346,0c-0.606,0.002 -1.187,0.244 -1.615,0.672c-0.429,0.429 -0.67,1.009 -0.672,1.615l0,4.347c0.002,0.605 0.243,1.186 0.672,1.614c0.428,0.429 1.009,0.67 1.615,0.672l4.346,0c0.606,-0.002 1.186,-0.243 1.615,-0.672c0.428,-0.428 0.67,-1.009 0.672,-1.614l0,-4.347c-0.002,-0.606 -0.244,-1.186 -0.672,-1.615c-0.428,-0.428 -1.009,-0.67 -1.615,-0.672Zm0.665,6.634c0,0.176 -0.07,0.345 -0.195,0.47c-0.124,0.124 -0.293,0.195 -0.47,0.195l-4.346,0c-0.177,0 -0.346,-0.071 -0.471,-0.195c-0.124,-0.125 -0.194,-0.294 -0.194,-0.47l0,-4.347c0,-0.176 0.07,-0.346 0.194,-0.47c0.125,-0.125 0.294,-0.195 0.471,-0.195l4.346,0c0.177,0 0.346,0.07 0.47,0.195c0.125,0.124 0.195,0.294 0.195,0.47l0,4.347Z" style="fill:#999;fill-rule:nonzero;"/><path d="M6.891,10.281l-4.347,0c-0.606,0.002 -1.186,0.244 -1.614,0.672c-0.429,0.429 -0.67,1.009 -0.673,1.615l0,4.347c0.003,0.606 0.244,1.186 0.673,1.615c0.428,0.428 1.008,0.67 1.614,0.672l4.347,0c0.606,-0.002 1.186,-0.244 1.615,-0.672c0.428,-0.429 0.67,-1.009 0.672,-1.615l0,-4.347c-0.002,-0.606 -0.244,-1.186 -0.672,-1.615c-0.429,-0.428 -1.009,-0.67 -1.615,-0.672Zm0.665,6.634c0,0.176 -0.07,0.345 -0.195,0.47c-0.125,0.125 -0.294,0.195 -0.47,0.195l-4.347,0c-0.176,0 -0.345,-0.07 -0.47,-0.195c-0.125,-0.125 -0.195,-0.294 -0.195,-0.47l0,-4.347c0,-0.176 0.07,-0.345 0.195,-0.47c0.125,-0.125 0.294,-0.195 0.47,-0.195l4.347,0c0.176,0 0.345,0.07 0.47,0.195c0.125,0.125 0.195,0.294 0.195,0.47l0,4.347Z" style="fill:#999;fill-rule:nonzero;"/><path d="M17.433,10.281l-4.346,0c-0.606,0.002 -1.187,0.244 -1.615,0.672c-0.429,0.429 -0.67,1.009 -0.672,1.615l0,4.347c0.002,0.606 0.243,1.186 0.672,1.615c0.428,0.428 1.009,0.67 1.615,0.672l4.346,0c0.606,-0.002 1.186,-0.244 1.615,-0.672c0.428,-0.429 0.67,-1.009 0.672,-1.615l0,-4.347c-0.002,-0.606 -0.244,-1.186 -0.672,-1.615c-0.428,-0.428 -1.009,-0.67 -1.615,-0.672Zm0.665,6.634c0,0.176 -0.07,0.345 -0.195,0.47c-0.124,0.125 -0.293,0.195 -0.47,0.195l-4.346,0c-0.177,0 -0.346,-0.07 -0.471,-0.195c-0.124,-0.125 -0.194,-0.294 -0.194,-0.47l0,-4.347c0,-0.176 0.07,-0.345 0.194,-0.47c0.125,-0.125 0.294,-0.195 0.471,-0.195l4.346,0c0.177,0 0.346,0.07 0.47,0.195c0.125,0.125 0.195,0.294 0.195,0.47l0,4.347Z" style="fill:#999;fill-rule:nonzero;"/></g></svg>