<?xml version="1.0" encoding="UTF-8" standalone="no"?><!DOCTYPE svg PUBLIC "-//W3C//DTD SVG 1.1//EN" "http://www.w3.org/Graphics/SVG/1.1/DTD/svg11.dtd"><svg width="100%" height="100%" viewBox="0 0 20 20" version="1.1" xmlns="http://www.w3.org/2000/svg" xmlns:xlink="http://www.w3.org/1999/xlink" xml:space="preserve" xmlns:serif="http://www.serif.com/" style="fill-rule:evenodd;clip-rule:evenodd;stroke-linejoin:round;stroke-miterlimit:1.41421;"><path d="M7.813,6.205l1.443,0l0,6.608c0,0.085 0.07,0.156 0.156,0.156l1.172,0c0.086,0 0.156,-0.071 0.156,-0.157l0,-6.607l1.447,0c0.131,0 0.204,-0.15 0.123,-0.252l-2.187,-2.769c-0.015,-0.019 -0.033,-0.034 -0.055,-0.045c-0.021,-0.01 -0.044,-0.015 -0.068,-0.015c-0.024,0 -0.047,0.005 -0.068,0.015c-0.022,0.011 -0.04,0.026 -0.055,0.045l-2.188,2.767c-0.08,0.104 -0.007,0.254 0.123,0.254Zm9.336,6.022l-1.171,0c-0.086,0 -0.157,0.07 -0.157,0.156l0,3.008l-11.64,0l0,-3.008c0,-0.086 -0.071,-0.156 -0.157,-0.156l-1.171,0c-0.086,0 -0.157,0.07 -0.157,0.156l0,3.867c0,0.346 0.28,0.625 0.625,0.625l13.36,0c0.345,0 0.625,-0.279 0.625,-0.625l0,-3.867c0,-0.086 -0.071,-0.156 -0.157,-0.156Z" style="fill:#fff;fill-rule:nonzero;"/></svg>