<?xml version="1.0" encoding="UTF-8" standalone="no"?><!DOCTYPE svg PUBLIC "-//W3C//DTD SVG 1.1//EN" "http://www.w3.org/Graphics/SVG/1.1/DTD/svg11.dtd"><svg width="100%" height="100%" viewBox="0 0 26 26" version="1.1" xmlns="http://www.w3.org/2000/svg" xmlns:xlink="http://www.w3.org/1999/xlink" xml:space="preserve" xmlns:serif="http://www.serif.com/" style="fill-rule:evenodd;clip-rule:evenodd;stroke-linejoin:round;stroke-miterlimit:1.41421;"><path d="M20,6l0,2l-4,0l0,-2l4,0Zm-10,0l0,6l-4,0l0,-6l4,0Zm10,8l0,6l-4,0l0,-6l4,0Zm-10,4l0,2l-4,0l0,-2l4,0Zm12,-14l-8,0l0,6l8,0l0,-6Zm-10,0l-8,0l0,10l8,0l0,-10Zm10,8l-8,0l0,10l8,0l0,-10Zm-10,4l-8,0l0,6l8,0l0,-6Z" style="fill:#4f4f4f;fill-rule:nonzero;"/></svg>