<?xml version="1.0" encoding="UTF-8" standalone="no"?><!DOCTYPE svg PUBLIC "-//W3C//DTD SVG 1.1//EN" "http://www.w3.org/Graphics/SVG/1.1/DTD/svg11.dtd"><svg width="100%" height="100%" viewBox="0 0 20 20" version="1.1" xmlns="http://www.w3.org/2000/svg" xmlns:xlink="http://www.w3.org/1999/xlink" xml:space="preserve" xmlns:serif="http://www.serif.com/" style="fill-rule:evenodd;clip-rule:evenodd;stroke-linejoin:round;stroke-miterlimit:1.41421;"><path d="M0,1.875c0,-0.166 0.066,-0.325 0.183,-0.442c0.117,-0.117 0.276,-0.183 0.442,-0.183l1.875,0c0.139,0 0.275,0.047 0.385,0.133c0.11,0.085 0.188,0.205 0.221,0.341l0.506,2.026l14.513,0c0.092,0 0.184,0.021 0.267,0.06c0.084,0.04 0.157,0.097 0.216,0.169c0.059,0.071 0.101,0.155 0.123,0.245c0.022,0.089 0.025,0.183 0.006,0.273l-1.25,6.251c-0.027,0.136 -0.099,0.259 -0.204,0.35c-0.105,0.091 -0.238,0.144 -0.377,0.151l-11.746,0.59l0.359,1.911l10.731,0c0.166,0 0.325,0.066 0.442,0.183c0.117,0.117 0.183,0.276 0.183,0.442c0,0.166 -0.066,0.325 -0.183,0.442c-0.117,0.117 -0.276,0.183 -0.442,0.183l-11.25,0c-0.146,0 -0.287,-0.051 -0.399,-0.144c-0.112,-0.093 -0.188,-0.223 -0.215,-0.366l-1.874,-9.981l-0.499,-2.009l-1.388,0c-0.166,0 -0.325,-0.066 -0.442,-0.183c-0.117,-0.117 -0.183,-0.276 -0.183,-0.442Zm3.878,3.125l1.05,5.599l11.43,-0.574l1.005,-5.025l-13.486,0Zm2.373,10c-0.663,0 -1.299,0.263 -1.768,0.732c-0.469,0.469 -0.732,1.105 -0.732,1.768c0,0.663 0.263,1.299 0.732,1.768c0.469,0.469 1.105,0.732 1.768,0.732c0.663,0 1.299,-0.263 1.768,-0.732c0.469,-0.469 0.732,-1.105 0.732,-1.768c0,-0.663 -0.263,-1.299 -0.732,-1.768c-0.469,-0.469 -1.105,-0.732 -1.768,-0.732Zm8.75,0c-0.663,0 -1.299,0.263 -1.768,0.732c-0.469,0.469 -0.732,1.105 -0.732,1.768c0,0.663 0.263,1.299 0.732,1.768c0.469,0.469 1.105,0.732 1.768,0.732c0.663,0 1.299,-0.263 1.768,-0.732c0.469,-0.469 0.732,-1.105 0.732,-1.768c0,-0.663 -0.263,-1.299 -0.732,-1.768c-0.469,-0.469 -1.105,-0.732 -1.768,-0.732Zm-8.75,1.25c0.332,0 0.649,0.132 0.884,0.366c0.234,0.235 0.366,0.553 0.366,0.884c0,0.331 -0.132,0.649 -0.366,0.884c-0.235,0.234 -0.552,0.366 -0.884,0.366c-0.332,0 -0.649,-0.132 -0.884,-0.366c-0.234,-0.235 -0.366,-0.553 -0.366,-0.884c0,-0.331 0.132,-0.649 0.366,-0.884c0.235,-0.234 0.552,-0.366 0.884,-0.366Zm8.75,0c0.332,0 0.649,0.132 0.884,0.366c0.234,0.235 0.366,0.553 0.366,0.884c0,0.331 -0.132,0.649 -0.366,0.884c-0.235,0.234 -0.553,0.366 -0.884,0.366c-0.332,0 -0.649,-0.132 -0.884,-0.366c-0.234,-0.235 -0.366,-0.553 -0.366,-0.884c0,-0.331 0.132,-0.649 0.366,-0.884c0.235,-0.234 0.553,-0.366 0.884,-0.366Z" style="fill:#999;fill-rule:nonzero;"/></svg>