<?xml version="1.0" encoding="UTF-8" standalone="no"?><!DOCTYPE svg PUBLIC "-//W3C//DTD SVG 1.1//EN" "http://www.w3.org/Graphics/SVG/1.1/DTD/svg11.dtd"><svg width="100%" height="100%" viewBox="0 0 20 20" version="1.1" xmlns="http://www.w3.org/2000/svg" xmlns:xlink="http://www.w3.org/1999/xlink" xml:space="preserve" xmlns:serif="http://www.serif.com/" style="fill-rule:evenodd;clip-rule:evenodd;stroke-linejoin:round;stroke-miterlimit:1.41421;"><path d="M16.875,10.475l0,-0.475l0,-0.481l1.2,-1.05c0.221,-0.195 0.366,-0.462 0.41,-0.754c0.043,-0.291 -0.018,-0.589 -0.172,-0.84l-1.476,-2.5c-0.109,-0.19 -0.267,-0.348 -0.456,-0.457c-0.19,-0.11 -0.405,-0.168 -0.625,-0.168c-0.136,-0.001 -0.271,0.02 -0.4,0.063l-1.518,0.512c-0.263,-0.174 -0.536,-0.331 -0.819,-0.469l-0.319,-1.575c-0.057,-0.287 -0.214,-0.546 -0.442,-0.73c-0.229,-0.184 -0.515,-0.282 -0.808,-0.276l-2.925,0c-0.293,-0.006 -0.579,0.092 -0.808,0.276c-0.228,0.184 -0.385,0.443 -0.442,0.73l-0.319,1.575c-0.285,0.138 -0.56,0.295 -0.825,0.469l-1.487,-0.537c-0.131,-0.034 -0.266,-0.047 -0.4,-0.038c-0.219,0 -0.435,0.058 -0.624,0.168c-0.19,0.109 -0.348,0.267 -0.457,0.457l-1.475,2.5c-0.146,0.251 -0.201,0.544 -0.154,0.83c0.047,0.287 0.192,0.548 0.41,0.739l1.181,1.081l0,0.956l-1.181,1.05c-0.224,0.193 -0.373,0.458 -0.42,0.75c-0.047,0.292 0.011,0.591 0.164,0.844l1.475,2.5c0.109,0.19 0.267,0.347 0.457,0.457c0.189,0.11 0.405,0.168 0.624,0.168c0.136,0.001 0.271,-0.02 0.4,-0.063l1.519,-0.512c0.262,0.174 0.535,0.331 0.818,0.469l0.319,1.575c0.057,0.287 0.214,0.546 0.442,0.73c0.229,0.184 0.515,0.282 0.808,0.276l2.95,0c0.293,0.006 0.579,-0.092 0.808,-0.276c0.228,-0.184 0.385,-0.443 0.442,-0.73l0.319,-1.575c0.285,-0.138 0.56,-0.295 0.825,-0.469l1.512,0.512c0.129,0.043 0.264,0.064 0.4,0.063c0.22,0 0.435,-0.058 0.625,-0.168c0.189,-0.11 0.347,-0.267 0.457,-0.457l1.425,-2.5c0.145,-0.251 0.2,-0.544 0.153,-0.83c-0.047,-0.287 -0.192,-0.548 -0.41,-0.739l-1.181,-1.081Zm-1.119,4.525l-2.143,-0.725c-0.502,0.425 -1.076,0.757 -1.694,0.981l-0.444,2.244l-2.95,0l-0.444,-2.219c-0.613,-0.23 -1.184,-0.562 -1.687,-0.981l-2.15,0.7l-1.475,-2.5l1.7,-1.5c-0.116,-0.647 -0.116,-1.309 0,-1.956l-1.7,-1.544l1.475,-2.5l2.144,0.725c0.501,-0.425 1.075,-0.757 1.693,-0.981l0.444,-2.244l2.95,0l0.444,2.219c0.613,0.23 1.184,0.562 1.687,0.981l2.15,-0.7l1.475,2.5l-1.7,1.5c0.116,0.647 0.116,1.309 0,1.956l1.7,1.544l-1.475,2.5Z" style="fill:#999;fill-rule:nonzero;"/><path d="M10,13.75c-0.742,0 -1.467,-0.22 -2.083,-0.632c-0.617,-0.412 -1.098,-0.998 -1.382,-1.683c-0.283,-0.685 -0.358,-1.439 -0.213,-2.167c0.145,-0.727 0.502,-1.395 1.026,-1.92c0.525,-0.524 1.193,-0.881 1.92,-1.026c0.728,-0.145 1.482,-0.07 2.167,0.213c0.685,0.284 1.271,0.765 1.683,1.382c0.412,0.616 0.632,1.341 0.632,2.083c0.005,0.494 -0.089,0.984 -0.275,1.441c-0.187,0.457 -0.463,0.873 -0.812,1.222c-0.349,0.349 -0.765,0.625 -1.222,0.812c-0.457,0.186 -0.947,0.28 -1.441,0.275Zm0,-6.25c-0.33,-0.008 -0.659,0.052 -0.966,0.175c-0.307,0.123 -0.585,0.306 -0.819,0.54c-0.234,0.234 -0.417,0.512 -0.54,0.819c-0.123,0.307 -0.183,0.636 -0.175,0.966c-0.008,0.33 0.052,0.659 0.175,0.966c0.123,0.306 0.306,0.585 0.54,0.819c0.234,0.234 0.512,0.417 0.819,0.54c0.307,0.123 0.636,0.183 0.966,0.175c0.33,0.008 0.659,-0.052 0.966,-0.175c0.307,-0.123 0.585,-0.306 0.819,-0.54c0.234,-0.234 0.418,-0.513 0.54,-0.819c0.123,-0.307 0.183,-0.636 0.175,-0.966c0.008,-0.33 -0.052,-0.659 -0.175,-0.966c-0.122,-0.307 -0.306,-0.585 -0.54,-0.819c-0.234,-0.234 -0.512,-0.417 -0.819,-0.54c-0.307,-0.123 -0.636,-0.183 -0.966,-0.175Z" style="fill:#999;fill-rule:nonzero;"/></svg>