<?xml version="1.0" encoding="UTF-8" standalone="no"?><!DOCTYPE svg PUBLIC "-//W3C//DTD SVG 1.1//EN" "http://www.w3.org/Graphics/SVG/1.1/DTD/svg11.dtd"><svg width="100%" height="100%" viewBox="0 0 20 20" version="1.1" xmlns="http://www.w3.org/2000/svg" xmlns:xlink="http://www.w3.org/1999/xlink" xml:space="preserve" xmlns:serif="http://www.serif.com/" style="fill-rule:evenodd;clip-rule:evenodd;stroke-linejoin:round;stroke-miterlimit:1.41421;"><path d="M5,13.75l-2.5,0l0,3.75l2.5,0l0,-3.75Zm6.25,-5l-2.5,0l0,8.75l2.5,0l0,-8.75Zm6.25,-6.25l0,15l-2.5,0l0,-15l2.5,0Zm-2.5,-1.25c-0.332,0 -0.649,0.132 -0.884,0.366c-0.234,0.235 -0.366,0.552 -0.366,0.884l0,15c0,0.331 0.132,0.649 0.366,0.884c0.235,0.234 0.553,0.366 0.884,0.366l2.5,0c0.331,0 0.649,-0.132 0.884,-0.366c0.234,-0.235 0.366,-0.553 0.366,-0.884l0,-15c0,-0.332 -0.132,-0.649 -0.366,-0.884c-0.235,-0.234 -0.553,-0.366 -0.884,-0.366l-2.5,0Zm-7.5,7.5c0,-0.332 0.132,-0.649 0.366,-0.884c0.235,-0.234 0.552,-0.366 0.884,-0.366l2.5,0c0.332,0 0.649,0.132 0.884,0.366c0.234,0.235 0.366,0.552 0.366,0.884l0,8.75c0,0.331 -0.132,0.649 -0.366,0.884c-0.235,0.234 -0.553,0.366 -0.884,0.366l-2.5,0c-0.332,0 -0.649,-0.132 -0.884,-0.366c-0.234,-0.235 -0.366,-0.553 -0.366,-0.884l0,-8.75Zm-6.25,5c0,-0.332 0.132,-0.649 0.366,-0.884c0.235,-0.234 0.552,-0.366 0.884,-0.366l2.5,0c0.332,0 0.649,0.132 0.884,0.366c0.234,0.235 0.366,0.553 0.366,0.884l0,3.75c0,0.331 -0.132,0.649 -0.366,0.884c-0.235,0.234 -0.552,0.366 -0.884,0.366l-2.5,0c-0.332,0 -0.649,-0.132 -0.884,-0.366c-0.234,-0.235 -0.366,-0.553 -0.366,-0.884l0,-3.75Z" style="fill:#30b7bd;fill-rule:nonzero;"/></svg>