<?xml version="1.0" encoding="UTF-8" standalone="no"?><!DOCTYPE svg PUBLIC "-//W3C//DTD SVG 1.1//EN" "http://www.w3.org/Graphics/SVG/1.1/DTD/svg11.dtd"><svg width="100%" height="100%" viewBox="0 0 26 26" version="1.1" xmlns="http://www.w3.org/2000/svg" xmlns:xlink="http://www.w3.org/1999/xlink" xml:space="preserve" xmlns:serif="http://www.serif.com/" style="fill-rule:evenodd;clip-rule:evenodd;stroke-linejoin:round;stroke-miterlimit:1.41421;"><path d="M13,4.333c-7.583,0 -10.833,5.417 -10.833,5.417l7.583,7.583c0,0 0.542,-0.975 1.517,-1.625l0.325,2.167c-0.434,0.325 -0.759,0.975 -0.759,1.625c0,0.575 0.229,1.126 0.635,1.532c0.406,0.406 0.957,0.635 1.532,0.635c0.575,0 1.126,-0.229 1.532,-0.635c0.406,-0.406 0.635,-0.957 0.635,-1.532c0,-0.975 -0.542,-1.733 -1.409,-2.058l-0.433,-2.275c1.95,0.216 2.925,2.166 2.925,2.166l7.583,-7.583c0,0 -3.25,-5.417 -10.833,-5.417Zm3.358,9.859c-0.866,-0.65 -1.95,-1.192 -3.358,-1.192l-1.083,-6.392c0.325,-0.108 0.758,-0.108 1.083,-0.108c4.008,0 6.608,1.842 7.908,3.142l-4.55,4.55Zm-6.716,0l-4.55,-4.55c0.866,-0.975 2.491,-2.059 4.658,-2.709l1.083,6.5c-0.433,0.217 -0.866,0.434 -1.191,0.759Z" style="fill:#4f4f4f;fill-rule:nonzero;"/></svg>