<svg width="170" height="29" viewBox="0 0 170 29" fill="none" xmlns="http://www.w3.org/2000/svg">
<g clip-path="url(#clip0)">
<path d="M63.3377 18.469C63.477 18.469 63.598 18.524 63.7007 18.634L64.7237 19.745C64.0783 20.5223 63.2863 21.1237 62.3477 21.549C61.409 21.967 60.287 22.176 58.9817 22.176C57.823 22.176 56.7743 21.978 55.8357 21.582C54.9043 21.1787 54.1087 20.6213 53.4487 19.91C52.7887 19.1913 52.279 18.337 51.9197 17.347C51.5677 16.357 51.3917 15.268 51.3917 14.08C51.3917 12.892 51.5787 11.803 51.9527 10.813C52.334 9.81567 52.8657 8.96133 53.5477 8.25C54.237 7.53133 55.0583 6.974 56.0117 6.578C56.9723 6.182 58.0283 5.984 59.1797 5.984C60.3237 5.984 61.332 6.171 62.2047 6.545C63.0847 6.91167 63.8473 7.403 64.4927 8.019L63.6457 9.218C63.587 9.29867 63.5173 9.36833 63.4367 9.427C63.356 9.48567 63.246 9.515 63.1067 9.515C62.96 9.515 62.7913 9.449 62.6007 9.317C62.4173 9.17767 62.179 9.02733 61.8857 8.866C61.5997 8.69733 61.2367 8.547 60.7967 8.415C60.364 8.27567 59.8213 8.206 59.1687 8.206C58.4133 8.206 57.7203 8.338 57.0897 8.602C56.459 8.866 55.9163 9.251 55.4617 9.757C55.007 10.263 54.6513 10.879 54.3947 11.605C54.1453 12.331 54.0207 13.156 54.0207 14.08C54.0207 15.0113 54.1527 15.8437 54.4167 16.577C54.6807 17.303 55.0437 17.919 55.5057 18.425C55.9677 18.9237 56.5103 19.305 57.1337 19.569C57.757 19.833 58.428 19.965 59.1467 19.965C59.5867 19.965 59.979 19.943 60.3237 19.899C60.6757 19.8477 60.9983 19.7707 61.2917 19.668C61.585 19.558 61.86 19.4223 62.1167 19.261C62.3807 19.0997 62.641 18.9017 62.8977 18.667C63.0443 18.535 63.191 18.469 63.3377 18.469ZM81.5078 14.08C81.5078 15.2533 81.3171 16.335 80.9358 17.325C80.5544 18.315 80.0154 19.1693 79.3188 19.888C78.6294 20.5993 77.7971 21.1567 76.8218 21.56C75.8538 21.9633 74.7758 22.165 73.5878 22.165C72.4071 22.165 71.3291 21.9633 70.3538 21.56C69.3858 21.1567 68.5534 20.5993 67.8568 19.888C67.1601 19.1693 66.6211 18.315 66.2398 17.325C65.8584 16.335 65.6678 15.2533 65.6678 14.08C65.6678 12.9067 65.8584 11.825 66.2398 10.835C66.6211 9.845 67.1601 8.99067 67.8568 8.272C68.5534 7.55333 69.3858 6.99233 70.3538 6.589C71.3291 6.18567 72.4071 5.984 73.5878 5.984C74.7758 5.984 75.8538 6.18567 76.8218 6.589C77.7971 6.99233 78.6294 7.55333 79.3188 8.272C80.0154 8.99067 80.5544 9.845 80.9358 10.835C81.3171 11.825 81.5078 12.9067 81.5078 14.08ZM78.8788 14.08C78.8788 13.1707 78.7541 12.353 78.5048 11.627C78.2628 10.901 77.9108 10.285 77.4488 9.779C76.9941 9.273 76.4404 8.88433 75.7878 8.613C75.1351 8.34167 74.4018 8.206 73.5878 8.206C72.7811 8.206 72.0514 8.34167 71.3988 8.613C70.7461 8.88433 70.1888 9.273 69.7268 9.779C69.2648 10.285 68.9091 10.901 68.6598 11.627C68.4104 12.353 68.2858 13.1707 68.2858 14.08C68.2858 14.9967 68.4104 15.818 68.6598 16.544C68.9091 17.27 69.2648 17.886 69.7268 18.392C70.1888 18.8907 70.7461 19.2757 71.3988 19.547C72.0514 19.811 72.7811 19.943 73.5878 19.943C74.4018 19.943 75.1351 19.811 75.7878 19.547C76.4404 19.2757 76.9941 18.8907 77.4488 18.392C77.9108 17.886 78.2628 17.27 78.5048 16.544C78.7541 15.818 78.8788 14.9967 78.8788 14.08ZM92.2039 15.796C92.3066 16.0087 92.4092 16.2287 92.5119 16.456C92.6146 16.676 92.7062 16.9033 92.7869 17.138C92.8749 16.9033 92.9666 16.6723 93.0619 16.445C93.1646 16.2103 93.2709 15.9867 93.3809 15.774L98.3859 6.589C98.4886 6.38367 98.6022 6.26267 98.7269 6.226C98.8516 6.182 99.0276 6.16 99.2549 6.16H101.18V22H98.9139V11.143C98.9139 10.967 98.9176 10.7763 98.9249 10.571C98.9396 10.3657 98.9542 10.1567 98.9689 9.944L93.8869 19.338C93.6889 19.7267 93.3846 19.921 92.9739 19.921H92.6109C92.1929 19.921 91.8886 19.7267 91.6979 19.338L86.5169 9.911C86.5389 10.131 86.5572 10.3473 86.5719 10.56C86.5866 10.7653 86.5939 10.9597 86.5939 11.143V22H84.3279V6.16H86.2529C86.4802 6.16 86.6562 6.182 86.7809 6.226C86.9056 6.26267 87.0192 6.38367 87.1219 6.589L92.2039 15.796ZM107.505 16.269V22H104.931V6.16H109.859C110.893 6.16 111.788 6.281 112.543 6.523C113.306 6.765 113.933 7.106 114.424 7.546C114.923 7.97867 115.293 8.503 115.535 9.119C115.777 9.72767 115.898 10.4023 115.898 11.143C115.898 11.8983 115.77 12.5913 115.513 13.222C115.257 13.8453 114.875 14.3843 114.369 14.839C113.863 15.2863 113.233 15.6383 112.477 15.895C111.729 16.1443 110.857 16.269 109.859 16.269H107.505ZM107.505 14.234H109.859C110.431 14.234 110.934 14.1607 111.366 14.014C111.806 13.8673 112.169 13.662 112.455 13.398C112.749 13.1267 112.969 12.8003 113.115 12.419C113.262 12.0377 113.335 11.6123 113.335 11.143C113.335 10.681 113.262 10.2667 113.115 9.9C112.976 9.53333 112.763 9.22167 112.477 8.965C112.191 8.70833 111.828 8.514 111.388 8.382C110.956 8.24267 110.446 8.173 109.859 8.173H107.505V14.234ZM130.518 22H128.527C128.3 22 128.117 21.945 127.977 21.835C127.838 21.7177 127.732 21.5747 127.658 21.406L126.338 17.908H119.518L118.198 21.406C118.14 21.5527 118.037 21.6883 117.89 21.813C117.744 21.9377 117.56 22 117.34 22H115.349L121.63 6.16H124.237L130.518 22ZM120.211 16.06H125.645L123.467 10.274C123.379 10.0613 123.288 9.80833 123.192 9.515C123.104 9.22167 123.016 8.90633 122.928 8.569C122.84 8.91367 122.749 9.23267 122.653 9.526C122.565 9.812 122.481 10.065 122.4 10.285L120.211 16.06ZM133.709 6.16C133.819 6.16 133.911 6.16733 133.984 6.182C134.065 6.18933 134.138 6.20767 134.204 6.237C134.27 6.26633 134.332 6.31033 134.391 6.369C134.45 6.42767 134.512 6.501 134.578 6.589L143.29 17.776C143.268 17.5487 143.25 17.325 143.235 17.105C143.228 16.885 143.224 16.6797 143.224 16.489V6.16H145.479V22H144.17C143.972 22 143.803 21.967 143.664 21.901C143.525 21.8277 143.393 21.7103 143.268 21.549L134.567 10.373C134.589 10.5857 134.604 10.7983 134.611 11.011C134.626 11.2163 134.633 11.407 134.633 11.583V22H132.367V6.16H133.709ZM155.656 15.796V22H153.093V15.796L147.307 6.16H149.562C149.789 6.16 149.969 6.215 150.101 6.325C150.233 6.435 150.343 6.57433 150.431 6.743L153.676 12.419C153.822 12.705 153.954 12.9763 154.072 13.233C154.196 13.4897 154.303 13.7427 154.391 13.992C154.479 13.7353 154.581 13.4823 154.699 13.233C154.816 12.9763 154.948 12.705 155.095 12.419L158.318 6.743C158.391 6.59633 158.497 6.46433 158.637 6.347C158.776 6.22233 158.956 6.16 159.176 6.16H161.442L155.656 15.796Z" fill="#4F4F4F"/>
<path fill-rule="evenodd" clip-rule="evenodd" d="M12.2794 14.5L18.4407 20.6929L14.3261 24.8572L4.09445 14.5L14.3261 4.14281L15.8612 5.69622L17.9075 3.62464L14.3261 0L0 14.5L14.3261 29L22.5114 20.7144L14.3261 12.4284L12.2794 14.5Z" fill="#FFC43F"/>
<path fill-rule="evenodd" clip-rule="evenodd" d="M28.8622 14.5L22.7009 8.30709L26.8155 4.14281L37.0471 14.5L26.8155 24.8572L25.2804 23.3038L23.2341 25.3754L26.8155 29L41.1416 14.5L26.8155 1.90735e-06L18.6302 8.28561L26.8155 16.5716L28.8622 14.5Z" fill="#30B7BD"/>
</g>
<defs>
<clipPath id="clip0">
<rect width="170" height="29" fill="white"/>
</clipPath>
</defs>
</svg>
