<?xml version="1.0" encoding="UTF-8" standalone="no"?><!DOCTYPE svg PUBLIC "-//W3C//DTD SVG 1.1//EN" "http://www.w3.org/Graphics/SVG/1.1/DTD/svg11.dtd"><svg width="100%" height="100%" viewBox="0 0 26 26" version="1.1" xmlns="http://www.w3.org/2000/svg" xmlns:xlink="http://www.w3.org/1999/xlink" xml:space="preserve" xmlns:serif="http://www.serif.com/" style="fill-rule:evenodd;clip-rule:evenodd;stroke-linecap:round;stroke-linejoin:round;"><path d="M5.713,10.177c0.019,-0.23 0.123,-0.444 0.292,-0.601c0.17,-0.156 0.392,-0.243 0.622,-0.243l12.746,0c0.23,0 0.452,0.087 0.621,0.243c0.17,0.157 0.274,0.371 0.293,0.601l0.803,10.01c0.021,0.252 -0.012,0.506 -0.094,0.745c-0.083,0.239 -0.214,0.459 -0.386,0.645c-0.171,0.186 -0.38,0.334 -0.611,0.436c-0.232,0.101 -0.482,0.154 -0.735,0.154l-12.528,0c-0.253,0 -0.503,-0.053 -0.735,-0.154c-0.232,-0.102 -0.44,-0.25 -0.611,-0.436c-0.172,-0.186 -0.303,-0.406 -0.386,-0.645c-0.083,-0.239 -0.115,-0.493 -0.095,-0.745l0.803,-10.01l0.001,0Z" style="fill:none;stroke:#4f4f4f;stroke-width:2px;"/><path d="M16.667,12.083l0,-4.583c0,-0.972 -0.387,-1.905 -1.074,-2.593c-0.688,-0.687 -1.621,-1.074 -2.593,-1.074c-0.973,0 -1.905,0.387 -2.593,1.074c-0.687,0.688 -1.074,1.621 -1.074,2.593l0,4.583" style="fill:none;stroke:#4f4f4f;stroke-width:2px;"/></svg>