<?xml version="1.0" encoding="UTF-8" standalone="no"?><!DOCTYPE svg PUBLIC "-//W3C//DTD SVG 1.1//EN" "http://www.w3.org/Graphics/SVG/1.1/DTD/svg11.dtd"><svg width="100%" height="100%" viewBox="0 0 20 20" version="1.1" xmlns="http://www.w3.org/2000/svg" xmlns:xlink="http://www.w3.org/1999/xlink" xml:space="preserve" xmlns:serif="http://www.serif.com/" style="fill-rule:evenodd;clip-rule:evenodd;stroke-linejoin:round;stroke-miterlimit:1.41421;"><path d="M18.333,2.5l-16.666,0l0,5l0.833,0l0,9.167c0,0.442 0.176,0.866 0.488,1.178c0.313,0.313 0.737,0.488 1.179,0.488l11.666,0c0.442,0 0.866,-0.175 1.179,-0.488c0.312,-0.312 0.488,-0.736 0.488,-1.178l0,-9.167l0.833,0l0,-5Zm-15,1.667l13.334,0l0,1.666l-13.334,0l0,-1.666Zm12.5,12.5l-11.666,0l0,-9.167l11.666,0l0,9.167Zm-8.333,-7.5l5,0c0,0.442 -0.176,0.866 -0.488,1.178c-0.313,0.313 -0.737,0.488 -1.179,0.488l-1.666,0c-0.442,0 -0.866,-0.175 -1.179,-0.488c-0.312,-0.312 -0.488,-0.736 -0.488,-1.178Z" style="fill:#30b7bd;fill-rule:nonzero;"/></svg>