<?xml version="1.0" encoding="UTF-8" standalone="no"?><!DOCTYPE svg PUBLIC "-//W3C//DTD SVG 1.1//EN" "http://www.w3.org/Graphics/SVG/1.1/DTD/svg11.dtd"><svg width="100%" height="100%" viewBox="0 0 22 22" version="1.1" xmlns="http://www.w3.org/2000/svg" xmlns:xlink="http://www.w3.org/1999/xlink" xml:space="preserve" xmlns:serif="http://www.serif.com/" style="fill-rule:evenodd;clip-rule:evenodd;stroke-linejoin:round;stroke-miterlimit:1.41421;"><path d="M13.2,9.9l0,-3.3c0,-1.21 -0.99,-2.2 -2.2,-2.2c-1.21,0 -2.2,0.99 -2.2,2.2l-2.2,0c0,-2.431 1.969,-4.4 4.4,-4.4c2.431,0 4.4,1.969 4.4,4.4l0,3.3l1.1,0c0.605,0 1.1,0.495 1.1,1.1l0,7.7c0,0.605 -0.495,1.1 -1.1,1.1l-11,0c-0.605,0 -1.1,-0.495 -1.1,-1.1l0,-7.7c0,-0.605 0.495,-1.1 1.1,-1.1l7.7,0Zm-1.1,7.7l-0.396,-2.365c0.561,-0.264 0.946,-0.825 0.946,-1.485c0,-0.913 -0.737,-1.65 -1.65,-1.65c-0.913,0 -1.65,0.737 -1.65,1.65c0,0.66 0.385,1.221 0.946,1.485l-0.396,2.365l2.2,0Z" style="fill:#999;fill-rule:nonzero;"/></svg>