<?xml version="1.0" encoding="UTF-8" standalone="no"?><!DOCTYPE svg PUBLIC "-//W3C//DTD SVG 1.1//EN" "http://www.w3.org/Graphics/SVG/1.1/DTD/svg11.dtd"><svg width="100%" height="100%" viewBox="0 0 16 16" version="1.1" xmlns="http://www.w3.org/2000/svg" xmlns:xlink="http://www.w3.org/1999/xlink" xml:space="preserve" xmlns:serif="http://www.serif.com/" style="fill-rule:evenodd;clip-rule:evenodd;stroke-linejoin:round;stroke-miterlimit:1.41421;"><path d="M8,9c2.484,0 4.5,-2.016 4.5,-4.5c0,-2.484 -2.016,-4.5 -4.5,-4.5c-2.484,0 -4.5,2.016 -4.5,4.5c0,2.484 2.016,4.5 4.5,4.5Zm4,1l-1.722,0c-0.694,0.319 -1.466,0.5 -2.278,0.5c-0.813,0 -1.581,-0.181 -2.278,-0.5l-1.722,0c-2.209,0 -4,1.791 -4,4l0,0.5c0,0.828 0.672,1.5 1.5,1.5l13,0c0.828,0 1.5,-0.672 1.5,-1.5l0,-0.5c0,-2.209 -1.791,-4 -4,-4Z" style="fill:#999;fill-rule:nonzero;"/></svg>